<?xml version="1.0" encoding="iso-8859-1"?><!DOCTYPE svg PUBLIC "-//W3C//DTD SVG 1.1//EN" "http://www.w3.org/Graphics/SVG/1.1/DTD/svg11.dtd"><svg xmlns="http://www.w3.org/2000/svg" xmlns:xlink="http://www.w3.org/1999/xlink"><symbol viewBox="0 0 451.846 451.847" id="arrow-right" xmlns="http://www.w3.org/2000/svg"><path d="M345.441 248.292L151.154 442.573c-12.359 12.365-32.397 12.365-44.75 0-12.354-12.354-12.354-32.391 0-44.744L278.318 225.92 106.409 54.017c-12.354-12.359-12.354-32.394 0-44.748 12.354-12.359 32.391-12.359 44.75 0l194.287 194.284c6.177 6.18 9.262 14.271 9.262 22.366 0 8.099-3.091 16.196-9.267 22.373z" fill="#ccac00"/></symbol><symbol viewBox="0 0 298.678 298.678" id="double-arrow-right" xmlns="http://www.w3.org/2000/svg"><g fill="#ccac00"><path d="M59.421.839H0l118.842 147.6L0 297.839h59.421l118.842-149.4z"/><path d="M179.836.839h-59.421l118.842 147.6-118.842 149.4h59.421l118.842-149.4z"/></g></symbol></svg>